<svg width="173" height="166" viewBox="0 0 173 166" fill="none" xmlns="http://www.w3.org/2000/svg">
    <g clip-path="url(#clip0_10_176)">
        <path
            d="M108.633 15.7723L70.7909 22.3598C68.6449 22.7334 67.3225 24.6849 67.8373 26.7186C68.352 28.7523 70.509 30.0981 72.6551 29.7245L110.498 23.1369C112.644 22.7633 113.966 20.8118 113.451 18.7781C112.936 16.7445 110.779 15.3987 108.633 15.7723Z"
            fill="#C1863D" fill-opacity="0.8" />
        <path
            d="M122.129 128.269L62.2714 128.713C60.0844 128.729 58.4925 130.435 58.7158 132.522C58.9392 134.61 60.8932 136.289 63.0803 136.273L122.938 135.829C125.125 135.813 126.717 134.107 126.494 132.02C126.27 129.932 124.316 128.253 122.129 128.269Z"
            fill="#C1863D" fill-opacity="0.8" />
        <path
            d="M120.72 116.891L71.1421 114.066C68.9153 113.94 67.3386 115.558 67.6204 117.681C67.9023 119.805 69.936 121.629 72.1629 121.756L121.74 124.58C123.967 124.707 125.544 123.088 125.262 120.965C124.98 118.842 122.946 117.018 120.72 116.891Z"
            fill="#C1863D" fill-opacity="0.8" />
        <path
            d="M109.024 98.9742L74.9645 101.953C72.8103 102.142 71.2188 103.971 71.4098 106.038C71.6008 108.105 73.5019 109.629 75.6561 109.44L109.716 106.461C111.87 106.273 113.461 104.444 113.27 102.376C113.079 100.309 111.178 98.7858 109.024 98.9742Z"
            fill="#C1863D" fill-opacity="0.8" />
        <path
            d="M110.952 31.4238L71.1347 33.5269C68.9705 33.6412 67.3516 35.4149 67.5188 37.4885C67.686 39.5621 69.576 41.1504 71.7402 41.0361L111.558 38.933C113.722 38.8186 115.341 37.045 115.174 34.9714C115.006 32.8978 113.116 31.3095 110.952 31.4238Z"
            fill="#C1863D" fill-opacity="0.8" />
        <path
            d="M96.5656 37.7594C97.7346 37.7594 98.6823 36.9638 98.6823 35.9823C98.6823 35.0008 97.7346 34.2051 96.5656 34.2051C95.3966 34.2051 94.4489 35.0008 94.4489 35.9823C94.4489 36.9638 95.3966 37.7594 96.5656 37.7594Z"
            fill="#FBF8F4" />
        <path
            d="M90.1944 37.828C91.3634 37.828 92.311 37.0324 92.311 36.0509C92.311 35.0694 91.3634 34.2737 90.1944 34.2737C89.0254 34.2737 88.0777 35.0694 88.0777 36.0509C88.0777 37.0324 89.0254 37.828 90.1944 37.828Z"
            fill="#FBF8F4" />
        <path
            d="M99.0119 47.7268L66.7932 44.1025C64.6423 43.8606 62.6943 45.3375 62.4421 47.4014C62.1899 49.4653 63.7292 51.3345 65.8801 51.5765L98.0988 55.2008C100.25 55.4427 102.198 53.9658 102.45 51.9019C102.702 49.838 101.163 47.9688 99.0119 47.7268Z"
            fill="#C1863D" fill-opacity="0.8" />
        <path
            d="M124.075 10.6599C125.421 32.5957 115.07 50.1592 81.0578 72.4795C44.3069 90.283 34.1312 112.24 31.3287 146.724C46.8599 113.578 46.44 112.871 99.9732 74.6008C139.918 49.7821 127.764 32.7005 124.075 10.6599Z"
            fill="#C1863D" />
        <path
            d="M19.7518 7.73483C13.7506 38.1798 41.7868 65.9106 71.1759 86.1041C103.483 104.442 131.379 125.558 132.644 163.016C130.277 129.325 137.394 106.796 98.2354 81.6978C75.1587 64.5903 70.5842 40.8187 70.7767 8.27453C65.6839 18.1613 54.3085 30.1242 56.4769 52.4554C46.386 51.1191 28.0922 31.1103 19.7518 7.73483Z"
            fill="#A33D33" stroke="#FBF8F4" stroke-width="7.12819" stroke-linecap="round"
            stroke-linejoin="round" />
        <path
            d="M46.1792 36.9418C51.2912 36.9418 55.4353 33.2713 55.4353 28.7434C55.4353 24.2155 51.2912 20.545 46.1792 20.545C41.0671 20.545 36.923 24.2155 36.923 28.7434C36.923 33.2713 41.0671 36.9418 46.1792 36.9418Z"
            fill="#A33D33" />
        <path
            d="M83.6088 38.0819C84.7778 38.0819 85.7255 37.2862 85.7255 36.3047C85.7255 35.3232 84.7778 34.5276 83.6088 34.5276C82.4398 34.5276 81.4922 35.3232 81.4922 36.3047C81.4922 37.2862 82.4398 38.0819 83.6088 38.0819Z"
            fill="#FBF8F4" />
    </g>
    <defs>
        <clipPath id="clip0_10_176">
            <rect width="173" height="166" fill="white" />
        </clipPath>
    </defs>
</svg>